<svg width="9" height="16" viewBox="0 0 9 16" fill="none" xmlns="http://www.w3.org/2000/svg">
<path d="M0.171087 7.63906L7.10809 0.72106C7.16213 0.667087 7.22627 0.624285 7.29685 0.5951C7.36743 0.565915 7.44306 0.550918 7.51944 0.550964C7.59582 0.551011 7.67144 0.5661 7.74198 0.595371C7.81253 0.624642 7.87661 0.667521 7.93059 0.72156C7.98456 0.775599 8.02736 0.839739 8.05655 0.91032C8.08573 0.9809 8.10073 1.05654 8.10068 1.13291C8.10064 1.20929 8.08555 1.28491 8.05628 1.35545C8.027 1.426 7.98413 1.49009 7.93009 1.54406L1.40009 8.05106L7.93009 14.5571C7.98413 14.611 8.02702 14.675 8.05631 14.7455C8.08561 14.816 8.10074 14.8915 8.10083 14.9679C8.10092 15.0442 8.08598 15.1198 8.05686 15.1903C8.02773 15.2609 7.985 15.325 7.93109 15.3791C7.87718 15.4331 7.81316 15.476 7.74267 15.5053C7.67219 15.5346 7.59662 15.5497 7.52029 15.5498C7.44396 15.5499 7.36836 15.535 7.29781 15.5058C7.22725 15.4767 7.16313 15.434 7.10909 15.3801L0.171087 8.46206C0.116935 8.40808 0.0739689 8.34395 0.044652 8.27334C0.0153352 8.20272 0.000244141 8.12702 0.000244141 8.05056C0.000244141 7.9741 0.0153352 7.8984 0.044652 7.82778C0.0739689 7.75717 0.116935 7.69303 0.171087 7.63906V7.63906Z" fill="black"/>
</svg>
