<svg width="44" height="30" viewBox="0 0 44 30" fill="none" xmlns="http://www.w3.org/2000/svg">
<path d="M22.2212 29.4426C16.5181 29.4426 11.0485 27.8948 7.01581 25.1395C2.98309 22.3843 0.717529 18.6474 0.717529 14.7509V14.7509C0.717529 10.8544 2.98309 7.11745 7.01581 4.3622C11.0485 1.60696 16.5181 0.059082 22.2212 0.059082V0.059082C27.9243 0.059082 33.3939 1.60696 37.4266 4.3622C41.4593 7.11745 43.7249 10.8544 43.7249 14.7509V14.7509C43.7249 18.6474 41.4593 22.3843 37.4266 25.1395C33.3939 27.8948 27.9243 29.4426 22.2212 29.4426V29.4426Z" fill="#004197"/>
<path d="M19.2899 23.2133H24.5323V14.2668H28.1913L28.5806 11.2712H24.5323V9.56543C24.5323 8.85868 24.7405 8.57953 25.7433 8.57953H28.5806V5.47107H24.9499C21.0487 5.47107 19.291 6.64177 19.291 8.88266V11.2712H16.5635V14.3047H19.291L19.2899 23.2133Z" fill="white"/>
</svg>
