<svg width="32" height="18" viewBox="0 0 32 18" fill="none" xmlns="http://www.w3.org/2000/svg">
<path d="M28.3849 0.983887H3.48591C2.66283 0.985934 1.87456 1.21097 1.29404 1.60962C0.713525 2.00828 0.388175 2.54798 0.38938 3.11033L0.373535 15.869C0.375924 16.4324 0.704601 16.9724 1.28777 17.3708C1.87093 17.7692 2.66119 17.9938 3.48591 17.9954H28.3849C29.2096 17.9938 29.9999 17.7692 30.583 17.3708C31.1662 16.9724 31.4949 16.4324 31.4973 15.869V3.11033C31.4949 2.54686 31.1662 2.00694 30.583 1.60851C29.9999 1.21008 29.2096 0.985519 28.3849 0.983887V0.983887ZM28.3849 15.869H3.48591V5.23677L15.9354 10.5529L28.3849 5.23677V15.869ZM15.9354 8.42643L3.48591 3.11033H28.3849L15.9354 8.42643Z" fill="#231F20"/>
</svg>
