<svg width="44" height="30" viewBox="0 0 44 30" fill="none" xmlns="http://www.w3.org/2000/svg">
<path d="M22.4685 29.4426C16.7654 29.4426 11.2958 27.8948 7.26312 25.1395C3.2304 22.3843 0.964844 18.6474 0.964844 14.7509V14.7509C0.964844 10.8544 3.2304 7.11745 7.26312 4.3622C11.2958 1.60696 16.7654 0.059082 22.4685 0.059082V0.059082C28.1716 0.059082 33.6412 1.60696 37.6739 4.3622C41.7066 7.11745 43.9722 10.8544 43.9722 14.7509V14.7509C43.9722 18.6474 41.7066 22.3843 37.6739 25.1395C33.6412 27.8948 28.1716 29.4426 22.4685 29.4426V29.4426Z" fill="#004197"/>
<path d="M22.4686 8.52618C25.6217 8.52618 25.9952 8.53469 27.2413 8.57336C27.9899 8.57976 28.7314 8.67391 29.4335 8.85172C29.9429 8.98568 30.4056 9.19116 30.7916 9.45487C31.1776 9.71859 31.4783 10.0347 31.6744 10.3828C31.9346 10.8624 32.0725 11.369 32.0818 11.8805C32.1384 12.7311 32.1509 12.9871 32.1509 15.1413C32.1509 17.2956 32.1384 17.5508 32.0818 18.4014C32.0726 18.9131 31.9348 19.42 31.6744 19.8999C31.4783 20.248 31.1776 20.5641 30.7916 20.8278C30.4056 21.0915 29.9429 21.297 29.4335 21.431C28.7315 21.6088 27.9899 21.7027 27.2413 21.7086C25.9963 21.7472 25.6228 21.7557 22.4686 21.7557C19.3143 21.7557 18.942 21.7472 17.697 21.7086C16.9472 21.7029 16.2045 21.609 15.5014 21.431C14.9922 21.2967 14.5298 21.0911 14.1438 20.8275C13.7579 20.5638 13.457 20.2478 13.2605 19.8999C13.0001 19.4201 12.8626 18.9131 12.8542 18.4014C12.7976 17.5508 12.7851 17.2956 12.7851 15.1413C12.7851 12.9871 12.7976 12.7319 12.8542 11.8805C12.8628 11.3691 13.0002 10.8624 13.2605 10.3828C13.4567 10.0346 13.7575 9.71832 14.1434 9.45437C14.5294 9.19041 14.992 8.98459 15.5014 8.85017C16.2038 8.67239 16.9457 8.57824 17.6948 8.5718C18.9397 8.53314 19.3132 8.52464 22.4663 8.52464M22.4663 7.07092C19.2589 7.07092 18.8571 7.08098 17.5997 7.11964C16.62 7.13323 15.6507 7.26003 14.7329 7.49467C13.9486 7.70207 13.2363 8.01911 12.6416 8.4255C12.047 8.8319 11.5832 9.31867 11.2799 9.85463C10.9358 10.4815 10.7502 11.1439 10.731 11.8133C10.6733 12.6739 10.6597 12.9484 10.6597 15.1383C10.6597 17.3281 10.6733 17.6042 10.731 18.4632C10.7502 19.1327 10.9358 19.795 11.2799 20.4219C11.5832 20.9578 12.047 21.4446 12.6416 21.851C13.2363 22.2574 13.9486 22.5744 14.7329 22.7819C15.6509 23.0161 16.62 23.1429 17.5997 23.1569C18.8594 23.1955 19.2611 23.2048 22.4663 23.2048C25.6715 23.2048 26.0755 23.1955 27.3329 23.1569C28.3126 23.143 29.2818 23.0162 30.1997 22.7819C30.9841 22.5743 31.6965 22.2572 32.2912 21.8509C32.886 21.4445 33.3501 20.9578 33.6539 20.4219C33.9974 19.7949 34.183 19.1326 34.2028 18.4632C34.2605 17.6026 34.2741 17.3281 34.2741 15.1383C34.2741 12.9484 34.2605 12.6724 34.2028 11.8133C34.183 11.1439 33.9974 10.4817 33.6539 9.85463C33.3501 9.31872 32.886 8.832 32.2912 8.42563C31.6965 8.01927 30.9841 7.70219 30.1997 7.49467C29.282 7.25995 28.3127 7.13314 27.3329 7.11964C26.0733 7.08098 25.6715 7.07092 22.4663 7.07092Z" fill="white"/>
<path d="M22.4686 10.9983C21.2692 10.9983 20.0968 11.2413 19.0996 11.6965C18.1024 12.1518 17.3251 12.7988 16.8661 13.5559C16.4072 14.3129 16.2871 15.146 16.5211 15.9497C16.755 16.7533 17.3326 17.4916 18.1807 18.071C19.0287 18.6504 20.1092 19.045 21.2855 19.2048C22.4618 19.3647 23.6811 19.2827 24.7892 18.9691C25.8972 18.6555 26.8443 18.1245 27.5106 17.4431C28.1769 16.7618 28.5326 15.9608 28.5326 15.1414C28.5326 14.5973 28.3757 14.0585 28.071 13.5559C27.7663 13.0532 27.3196 12.5965 26.7565 12.2118C26.1934 11.827 25.5249 11.5219 24.7892 11.3137C24.0535 11.1055 23.2649 10.9983 22.4686 10.9983M22.4686 17.8308C21.6901 17.8308 20.929 17.673 20.2817 17.3775C19.6344 17.082 19.1298 16.662 18.8319 16.1706C18.534 15.6791 18.456 15.1384 18.6079 14.6167C18.7598 14.095 19.1347 13.6158 19.6852 13.2397C20.2357 12.8636 20.9371 12.6075 21.7006 12.5037C22.4642 12.3999 23.2557 12.4532 23.9749 12.6567C24.6942 12.8603 25.309 13.205 25.7415 13.6472C26.174 14.0895 26.4049 14.6095 26.4049 15.1414C26.4049 15.4945 26.3031 15.8443 26.1052 16.1706C25.9074 16.4968 25.6175 16.7933 25.252 17.043C24.8864 17.2928 24.4525 17.4909 23.9749 17.626C23.4974 17.7612 22.9855 17.8308 22.4686 17.8308" fill="white"/>
<path d="M30.1894 10.8343C30.1894 11.0258 30.1063 11.213 29.9506 11.3722C29.7949 11.5314 29.5736 11.6555 29.3147 11.7287C29.0558 11.802 28.7709 11.8212 28.496 11.7838C28.2211 11.7465 27.9687 11.6543 27.7705 11.5189C27.5723 11.3835 27.4374 11.211 27.3827 11.0232C27.328 10.8354 27.3561 10.6407 27.4633 10.4638C27.5706 10.2869 27.7522 10.1357 27.9852 10.0294C28.2182 9.92299 28.4922 9.86621 28.7724 9.86621C29.1482 9.86621 29.5087 9.96821 29.7744 10.1498C30.0401 10.3313 30.1894 10.5776 30.1894 10.8343Z" fill="white"/>
</svg>
