<svg width="38" height="39" viewBox="0 0 38 39" fill="none" xmlns="http://www.w3.org/2000/svg">
<path d="M19 38.505C13.9609 38.505 9.12816 36.5032 5.56497 32.94C2.00178 29.3768 0 24.5441 0 19.505V19.505C0 14.4659 2.00178 9.63317 5.56497 6.06998C9.12816 2.50679 13.9609 0.505005 19 0.505005V0.505005C24.0391 0.505005 28.8718 2.50679 32.435 6.06998C35.9982 9.63317 38 14.4659 38 19.505V19.505C38 24.5441 35.9982 29.3768 32.435 32.94C28.8718 36.5032 24.0391 38.505 19 38.505V38.505Z" fill="#004197"/>
<path d="M13.3081 15.192H9.36914V27.916H13.3081V15.192Z" fill="white"/>
<path d="M11.3202 13.525C11.7854 13.5288 12.2412 13.3943 12.6298 13.1386C13.0185 12.8829 13.3224 12.5175 13.503 12.0888C13.6836 11.6601 13.7328 11.1874 13.6444 10.7307C13.556 10.274 13.3339 9.85382 13.0063 9.52355C12.6786 9.19327 12.2603 8.96775 11.8043 8.8756C11.3484 8.78345 10.8753 8.82883 10.4451 9.00597C10.015 9.18311 9.64715 9.48403 9.3883 9.87056C9.12945 10.2571 8.99124 10.7118 8.99123 11.177C8.98884 11.7972 9.23284 12.3929 9.66959 12.8332C10.1063 13.2735 10.7001 13.5223 11.3202 13.525V13.525Z" fill="white"/>
<path d="M19.6042 21.236C19.6042 19.448 20.4272 18.382 22.0042 18.382C23.4522 18.382 24.1482 19.405 24.1482 21.236V27.915H28.0682V19.859C28.0682 16.451 26.1362 14.803 23.4382 14.803C22.6722 14.7921 21.9164 14.9798 21.2445 15.3478C20.5726 15.7158 20.0074 16.2516 19.6042 16.903V15.19H15.8262V27.913H19.6042V21.236Z" fill="white"/>
</svg>
