<svg width="44" height="30" viewBox="0 0 44 30" fill="none" xmlns="http://www.w3.org/2000/svg">
<path d="M21.9739 29.8331C16.2707 29.8331 10.8012 28.2853 6.76849 25.53C2.73577 22.7748 0.470215 19.0379 0.470215 15.1414V15.1414C0.470215 11.2449 2.73577 7.50795 6.76849 4.75271C10.8012 1.99746 16.2707 0.449585 21.9739 0.449585V0.449585C27.677 0.449585 33.1465 1.99746 37.1793 4.75271C41.212 7.50795 43.4775 11.2449 43.4775 15.1414V15.1414C43.4775 19.0379 41.212 22.7748 37.1793 25.53C33.1465 28.2853 27.677 29.8331 21.9739 29.8331V29.8331Z" fill="#004197"/>
<path d="M15.532 11.8064H11.074V21.6452H15.532V11.8064Z" fill="white"/>
<path d="M13.2822 10.5174C13.8086 10.5203 14.3245 10.4163 14.7643 10.2185C15.2042 10.0208 15.5481 9.73829 15.7526 9.4068C15.957 9.07531 16.0127 8.70981 15.9126 8.35666C15.8125 8.0035 15.5611 7.67862 15.1903 7.42324C14.8196 7.16785 14.3461 6.99346 13.8301 6.92221C13.314 6.85095 12.7786 6.88604 12.2917 7.02302C11.8049 7.15999 11.3886 7.39268 11.0957 7.69157C10.8027 7.99045 10.6463 8.34205 10.6463 8.70176C10.6436 9.18131 10.9197 9.64197 11.414 9.98244C11.9083 10.3229 12.5803 10.5153 13.2822 10.5174V10.5174Z" fill="white"/>
<path d="M22.6574 16.4799C22.6574 15.0973 23.5889 14.2731 25.3737 14.2731C27.0125 14.2731 27.8002 15.0641 27.8002 16.4799V21.6445H32.2367V15.4152C32.2367 12.7799 30.0502 11.5056 26.9966 11.5056C26.1297 11.4972 25.2743 11.6423 24.5139 11.9269C23.7534 12.2115 23.1138 12.6257 22.6574 13.1294V11.8048H18.3816V21.6429H22.6574V16.4799Z" fill="white"/>
</svg>
