<svg width="96" height="96" viewBox="0 0 96 96" fill="none" xmlns="http://www.w3.org/2000/svg">
<g filter="url(#filter0_d_2_791)">
<path d="M48 80.001C65.6731 80.001 80 65.6741 80 48.001C80 30.3279 65.6731 16.001 48 16.001C30.3269 16.001 16 30.3279 16 48.001C16 65.6741 30.3269 80.001 48 80.001Z" fill="white"/>
</g>
<path d="M50.383 47.998L42.441 40.062C42.3019 39.9225 42.1917 39.7569 42.1166 39.5748C42.0415 39.3927 42.003 39.1975 42.0034 39.0005C42.0037 38.8035 42.0428 38.6085 42.1185 38.4266C42.1942 38.2448 42.305 38.0796 42.4445 37.9405C42.584 37.8014 42.7496 37.6912 42.9317 37.6161C43.1138 37.541 43.309 37.5026 43.506 37.5029C43.703 37.5032 43.898 37.5423 44.0799 37.618C44.2617 37.6937 44.4269 37.8045 44.566 37.944L53.566 46.936C53.8374 47.2092 53.9933 47.5762 54.0015 47.9612C54.0097 48.3462 53.8695 48.7195 53.61 49.004L44.574 58.058C44.4358 58.2015 44.2705 58.3159 44.0876 58.3948C43.9047 58.4737 43.7079 58.5153 43.5088 58.5173C43.3096 58.5193 43.112 58.4817 42.9276 58.4065C42.7432 58.3313 42.5755 58.2202 42.4345 58.0796C42.2935 57.9389 42.1818 57.7716 42.1062 57.5874C42.0305 57.4032 41.9922 57.2057 41.9937 57.0065C41.9951 56.8074 42.0362 56.6105 42.1146 56.4274C42.1929 56.2443 42.3069 56.0786 42.45 55.94L50.383 47.998Z" fill="#4A4B4D"/>
<defs>
<filter id="filter0_d_2_791" x="0" y="0.00100708" width="96" height="96" filterUnits="userSpaceOnUse" color-interpolation-filters="sRGB">
<feFlood flood-opacity="0" result="BackgroundImageFix"/>
<feColorMatrix in="SourceAlpha" type="matrix" values="0 0 0 0 0 0 0 0 0 0 0 0 0 0 0 0 0 0 127 0" result="hardAlpha"/>
<feOffset/>
<feGaussianBlur stdDeviation="8"/>
<feColorMatrix type="matrix" values="0 0 0 0 0 0 0 0 0 0 0 0 0 0 0 0 0 0 0.078 0"/>
<feBlend mode="normal" in2="BackgroundImageFix" result="effect1_dropShadow_2_791"/>
<feBlend mode="normal" in="SourceGraphic" in2="effect1_dropShadow_2_791" result="shape"/>
</filter>
</defs>
</svg>
