<svg width="105" height="83" viewBox="0 0 105 83" fill="none" xmlns="http://www.w3.org/2000/svg">
<g filter="url(#filter0_d_2_105)">
<path d="M52.454 66.241C72.4559 66.241 88.6707 55.1627 88.6707 41.4969C88.6707 27.8312 72.4559 16.7529 52.454 16.7529C32.4521 16.7529 16.2373 27.8312 16.2373 41.4969C16.2373 55.1627 32.4521 66.241 52.454 66.241Z" fill="white"/>
</g>
<path d="M55.1511 41.4946L46.1625 35.3581C46.0051 35.2502 45.8804 35.1222 45.7954 34.9813C45.7104 34.8405 45.6669 34.6896 45.6672 34.5373C45.6676 34.3849 45.7119 34.2342 45.7976 34.0935C45.8832 33.9529 46.0086 33.8251 46.1665 33.7176C46.3244 33.6101 46.5118 33.5248 46.7179 33.4668C46.924 33.4087 47.1449 33.379 47.3679 33.3792C47.5908 33.3795 47.8115 33.4097 48.0174 33.4682C48.2232 33.5268 48.4102 33.6124 48.5676 33.7203L58.7535 40.6734C59.0606 40.8846 59.2371 41.1685 59.2463 41.4661C59.2556 41.7638 59.097 42.0525 58.8033 42.2725L48.5766 49.2735C48.4202 49.3844 48.2331 49.4729 48.0261 49.5339C47.8191 49.5949 47.5964 49.6271 47.371 49.6287C47.1456 49.6302 46.922 49.6011 46.7133 49.543C46.5045 49.4848 46.3148 49.3989 46.1552 49.2902C45.9956 49.1814 45.8692 49.052 45.7836 48.9096C45.6979 48.7671 45.6547 48.6144 45.6563 48.4604C45.6579 48.3064 45.7044 48.1542 45.7931 48.0126C45.8818 47.871 46.0108 47.7429 46.1727 47.6357L55.1511 41.4946Z" fill="#4A4B4D"/>
<defs>
<filter id="filter0_d_2_105" x="0.237305" y="0.752869" width="104.433" height="81.4881" filterUnits="userSpaceOnUse" color-interpolation-filters="sRGB">
<feFlood flood-opacity="0" result="BackgroundImageFix"/>
<feColorMatrix in="SourceAlpha" type="matrix" values="0 0 0 0 0 0 0 0 0 0 0 0 0 0 0 0 0 0 127 0" result="hardAlpha"/>
<feOffset/>
<feGaussianBlur stdDeviation="8"/>
<feColorMatrix type="matrix" values="0 0 0 0 0 0 0 0 0 0 0 0 0 0 0 0 0 0 0.078 0"/>
<feBlend mode="normal" in2="BackgroundImageFix" result="effect1_dropShadow_2_105"/>
<feBlend mode="normal" in="SourceGraphic" in2="effect1_dropShadow_2_105" result="shape"/>
</filter>
</defs>
</svg>
