<svg width="105" height="83" viewBox="0 0 105 83" fill="none" xmlns="http://www.w3.org/2000/svg">
<g filter="url(#filter0_d_2_141)">
<path d="M52.6735 66.4715C72.6754 66.4715 88.8902 55.3933 88.8902 41.7275C88.8902 28.0617 72.6754 16.9835 52.6735 16.9835C32.6716 16.9835 16.4568 28.0617 16.4568 41.7275C16.4568 55.3933 32.6716 66.4715 52.6735 66.4715Z" fill="white"/>
</g>
<path d="M49.9765 41.7252L58.965 35.5887C59.2829 35.3708 59.4611 35.0755 59.4603 34.7679C59.4596 34.4602 59.28 34.1654 58.9611 33.9482C58.6422 33.731 58.21 33.6093 57.7597 33.6098C57.3095 33.6103 56.8779 33.733 56.56 33.9509L46.3741 40.904C46.067 41.1152 45.8905 41.3991 45.8812 41.6967C45.872 41.9944 46.0306 42.2831 46.3243 42.5031L56.551 49.5041C56.7067 49.6168 56.894 49.7071 57.1016 49.7696C57.3093 49.832 57.5332 49.8654 57.7601 49.8678C57.987 49.8701 58.2122 49.8413 58.4226 49.7832C58.6329 49.725 58.824 49.6386 58.9847 49.5291C59.1453 49.4197 59.2722 49.2893 59.3578 49.1457C59.4434 49.0021 59.4861 48.8483 59.4832 48.6933C59.4803 48.5383 59.432 48.3852 59.341 48.2432C59.2501 48.1011 59.1184 47.973 58.9537 47.8663L49.9765 41.7252Z" fill="#4A4B4D"/>
<defs>
<filter id="filter0_d_2_141" x="0.456787" y="0.983459" width="104.433" height="81.4881" filterUnits="userSpaceOnUse" color-interpolation-filters="sRGB">
<feFlood flood-opacity="0" result="BackgroundImageFix"/>
<feColorMatrix in="SourceAlpha" type="matrix" values="0 0 0 0 0 0 0 0 0 0 0 0 0 0 0 0 0 0 127 0" result="hardAlpha"/>
<feOffset/>
<feGaussianBlur stdDeviation="8"/>
<feColorMatrix type="matrix" values="0 0 0 0 0 0 0 0 0 0 0 0 0 0 0 0 0 0 0.078 0"/>
<feBlend mode="normal" in2="BackgroundImageFix" result="effect1_dropShadow_2_141"/>
<feBlend mode="normal" in="SourceGraphic" in2="effect1_dropShadow_2_141" result="shape"/>
</filter>
</defs>
</svg>
