<svg width="105" height="83" viewBox="0 0 105 83" fill="none" xmlns="http://www.w3.org/2000/svg">
<g filter="url(#filter0_d_2_145)">
<path d="M52.3266 66.4715C72.3285 66.4715 88.5432 55.3933 88.5432 41.7275C88.5432 28.0617 72.3285 16.9835 52.3266 16.9835C32.3246 16.9835 16.1099 28.0617 16.1099 41.7275C16.1099 55.3933 32.3246 66.4715 52.3266 66.4715Z" fill="white"/>
</g>
<path d="M55.0236 41.7252L46.0351 35.5887C45.8777 35.4808 45.753 35.3527 45.668 35.2119C45.583 35.0711 45.5394 34.9202 45.5398 34.7679C45.5402 34.6155 45.5845 34.4647 45.6701 34.3241C45.7558 34.1835 45.8811 34.0557 46.0391 33.9482C46.197 33.8407 46.3843 33.7554 46.5905 33.6974C46.7966 33.6393 47.0175 33.6096 47.2404 33.6098C47.4634 33.6101 47.6841 33.6403 47.8899 33.6988C48.0958 33.7574 48.2827 33.843 48.4401 33.9509L58.6261 40.904C58.9332 41.1152 59.1096 41.3991 59.1189 41.6967C59.1282 41.9944 58.9695 42.2831 58.6759 42.5031L48.4492 49.5041C48.2928 49.615 48.1056 49.7035 47.8987 49.7645C47.6917 49.8255 47.469 49.8577 47.2436 49.8593C47.0182 49.8608 46.7946 49.8317 46.5858 49.7736C46.3771 49.7154 46.1874 49.6295 46.0277 49.5208C45.8681 49.412 45.7418 49.2826 45.6561 49.1402C45.5705 48.9977 45.5272 48.845 45.5289 48.691C45.5305 48.537 45.577 48.3848 45.6657 48.2432C45.7543 48.1016 45.8834 47.9735 46.0453 47.8663L55.0236 41.7252Z" fill="#4A4B4D"/>
<defs>
<filter id="filter0_d_2_145" x="0.109863" y="0.983459" width="104.433" height="81.4881" filterUnits="userSpaceOnUse" color-interpolation-filters="sRGB">
<feFlood flood-opacity="0" result="BackgroundImageFix"/>
<feColorMatrix in="SourceAlpha" type="matrix" values="0 0 0 0 0 0 0 0 0 0 0 0 0 0 0 0 0 0 127 0" result="hardAlpha"/>
<feOffset/>
<feGaussianBlur stdDeviation="8"/>
<feColorMatrix type="matrix" values="0 0 0 0 0 0 0 0 0 0 0 0 0 0 0 0 0 0 0.078 0"/>
<feBlend mode="normal" in2="BackgroundImageFix" result="effect1_dropShadow_2_145"/>
<feBlend mode="normal" in="SourceGraphic" in2="effect1_dropShadow_2_145" result="shape"/>
</filter>
</defs>
</svg>
