<svg width="26" height="18" viewBox="0 0 26 18" fill="none" xmlns="http://www.w3.org/2000/svg">
<path d="M3.58835 3.10425C5.08352 2.08311 6.98826 1.38778 9.06177 1.10614C11.1353 0.824506 13.2844 0.969213 15.2376 1.52197C17.1907 2.07473 18.8602 3.01072 20.0348 4.21162C21.2095 5.41252 21.8367 6.82441 21.837 8.26879C21.8442 10.0343 20.9082 11.7409 19.2045 13.0684L25.1418 17.1256C25.2117 17.1716 25.2675 17.2266 25.306 17.2875C25.3444 17.3484 25.3646 17.4139 25.3656 17.4802C25.3665 17.5465 25.3481 17.6123 25.3114 17.6736C25.2747 17.735 25.2204 17.7908 25.1518 17.8376C25.0832 17.8845 25.0016 17.9216 24.9117 17.9467C24.8219 17.9717 24.7257 17.9843 24.6286 17.9837C24.5316 17.9831 24.4357 17.9692 24.3466 17.943C24.2575 17.9167 24.1769 17.8786 24.1096 17.8308L18.1724 13.7743C16.6255 14.6959 14.7231 15.2937 12.6923 15.4965C10.6616 15.6993 8.5883 15.4984 6.72013 14.9179C4.85196 14.3373 3.26785 13.4017 2.157 12.2226C1.04614 11.0436 0.455498 9.67099 0.455601 8.26879C0.452002 7.30918 0.727032 6.35862 1.26477 5.47212C1.80251 4.58562 2.59227 3.7808 3.58835 3.10425V3.10425ZM4.62052 12.7274C5.91104 13.6082 7.5548 14.2078 9.34404 14.4505C11.1333 14.6932 12.9877 14.568 14.6728 14.0908C16.3579 13.6136 17.7981 12.8057 18.8114 11.7694C19.8246 10.733 20.3654 9.51471 20.3654 8.26841C20.3654 7.0221 19.8246 5.80378 18.8114 4.76743C17.7981 3.73108 16.3579 2.92323 14.6728 2.44601C12.9877 1.96878 11.1333 1.8436 9.34404 2.08628C7.5548 2.32897 5.91104 2.92862 4.62052 3.80945C2.8921 4.99294 1.9214 6.59654 1.9214 8.26841C1.9214 9.94028 2.8921 11.5439 4.62052 12.7274V12.7274Z" fill="#222222"/>
</svg>
