<svg width="23" height="18" viewBox="0 0 23 18" fill="none" xmlns="http://www.w3.org/2000/svg">
<path d="M22.5386 16.4658L20.6462 4.15328C20.627 4.02893 20.541 3.91385 20.405 3.8302C20.269 3.74654 20.0925 3.70022 19.9095 3.70015H16.3523V3.14573C16.3257 2.32721 15.8311 1.54834 14.9743 0.975885C14.1176 0.403429 12.9669 0.0828857 11.7686 0.0828857C10.5703 0.0828857 9.41959 0.403429 8.56289 0.975885C7.70618 1.54834 7.21157 2.32721 7.18494 3.14573V3.70015H3.62552C3.4425 3.70022 3.26599 3.74654 3.12997 3.8302C2.99394 3.91385 2.90802 4.02893 2.88874 4.15328L0.99302 16.4658C0.982214 16.5365 0.993328 16.608 1.02564 16.6756C1.05795 16.7432 1.11074 16.8054 1.18056 16.8581C1.25039 16.9108 1.33568 16.9529 1.4309 16.9817C1.52611 17.0104 1.62911 17.0251 1.7332 17.0248H21.8018C21.9056 17.0248 22.0082 17.0098 22.103 16.981C22.1978 16.9521 22.2827 16.9099 22.3521 16.8572C22.4216 16.8045 22.4741 16.7425 22.5062 16.675C22.5383 16.6076 22.5493 16.5363 22.5386 16.4658V16.4658ZM8.6653 3.14573C8.6653 2.58351 8.9922 2.04431 9.57407 1.64676C10.156 1.2492 10.9452 1.02586 11.7681 1.02586C12.591 1.02586 13.3801 1.2492 13.962 1.64676C14.5439 2.04431 14.8708 2.58351 14.8708 3.14573V3.70015H8.6653V3.14573ZM2.55373 16.0126L4.29327 4.71234H7.18268V5.82814C7.18268 5.96247 7.26078 6.09129 7.3998 6.18627C7.53883 6.28126 7.72738 6.33462 7.92399 6.33462C8.1206 6.33462 8.30915 6.28126 8.44817 6.18627C8.5872 6.09129 8.6653 5.96247 8.6653 5.82814V4.71234H14.8708V5.82814C14.8708 5.96247 14.9489 6.09129 15.0879 6.18627C15.227 6.28126 15.4155 6.33462 15.6121 6.33462C15.8087 6.33462 15.9973 6.28126 16.1363 6.18627C16.2753 6.09129 16.3534 5.96247 16.3534 5.82814V4.71234H19.2428L20.9801 16.0126H2.55373Z" fill="#222222"/>
</svg>
