<svg width="44" height="30" viewBox="0 0 44 30" fill="none" xmlns="http://www.w3.org/2000/svg">
<path d="M21.7263 29.8331C16.0232 29.8331 10.5537 28.2853 6.52093 25.53C2.48821 22.7748 0.222656 19.0379 0.222656 15.1414V15.1414C0.222656 11.2449 2.48821 7.50795 6.52093 4.75271C10.5537 1.99746 16.0232 0.449585 21.7263 0.449585V0.449585C27.4294 0.449585 32.899 1.99746 36.9317 4.75271C40.9644 7.50795 43.23 11.2449 43.23 15.1414V15.1414C43.23 19.0379 40.9644 22.7748 36.9317 25.53C32.899 28.2853 27.4294 29.8331 21.7263 29.8331V29.8331Z" fill="#004197"/>
<path d="M10.2864 20.0685C12.3498 20.9736 14.7383 21.4729 17.1898 21.5114C19.6413 21.5498 22.0609 21.1261 24.1829 20.2866C26.305 19.4472 28.0475 18.2245 29.2192 16.7528C30.3908 15.281 30.9463 13.6172 30.8246 11.9439C31.7442 11.4885 32.5372 10.9244 33.1663 10.2783C32.3099 10.5386 31.4011 10.7094 30.4704 10.7848C31.4513 10.3827 32.1846 9.7506 32.5336 9.00634C31.6127 9.38082 30.6049 9.64495 29.5537 9.78732C28.8454 9.27046 27.9069 8.9281 26.8842 8.81354C25.8616 8.69898 24.8122 8.81865 23.8994 9.15393C22.9867 9.4892 22.2618 10.0213 21.8376 10.6673C21.4135 11.3133 21.3139 12.037 21.5543 12.7257C19.6864 12.6614 17.8593 12.3288 16.1922 11.7496C14.525 11.1704 13.0553 10.3577 11.8788 9.36436C11.2783 10.0726 11.0942 10.9104 11.3638 11.7079C11.6334 12.5054 12.3365 13.2032 13.3308 13.6598C12.585 13.6435 11.8558 13.5054 11.2042 13.2569C11.1898 14.0057 11.558 14.7344 12.2452 15.3178C12.9325 15.9011 13.8959 16.3024 14.9696 16.4528C14.2788 16.5812 13.554 16.5997 12.851 16.5069C13.1488 17.1455 13.7318 17.7044 14.5181 18.1052C15.3044 18.5059 16.2546 18.7285 17.2355 18.7416C16.2616 19.2639 15.1467 19.65 13.9543 19.8777C12.7619 20.1054 11.5155 20.1702 10.2864 20.0685Z" fill="white"/>
</svg>
